:SAMPLES-PER-SECOND 30
:FULLY-SPECIFIED
:DEGREES
520
root  -55.9353 41.2222 -31.2716 -2.70445 -0.84938 1.23398
RightUpLeg  1.20117 -12.1267 -9.22843
RightLeg  8.90071 -3.11573 3.27624
RightFoot  -4.69199 -0.194254 2.7983
RightToes  0.00048216 0.542163 -0.142577
Spine  7.18051 1.18699 4.59289
Spine1  5.81669 2.68306 -5.07681
HEad  11.2376 4.77814 -2.41918
LeftShoulder1  7.32025 -10.8799 -44.3088
LeftArm  -14.0718 19.9882 -27.5773
LeftForeArm  18.3393 -19.1504 -3.73411
LeftHand  -0.25398 0.0180481 5.50724
RightShoulder  5.04133 8.7786 35.0832
RightArm  -5.06815 -15.7036 37.7355
RightForeArm  3.94105 15.9866 5.87066
RightHand  -0.545087 -1.08152 -14.5615
LeftUpLeg  4.06775 4.28031 -0.434357
LeftLeg  2.6038 19.0282 -4.06263
LeftFoot  -4.31036 -0.135537 2.63383
LeftToes  1.06244e-005 4.65854e-005 -8.18505e-006
521
root  -55.851 41.1887 -31.3566 -2.15327 -1.92639 1.6349
RightUpLeg  0.521993 -12.5428 -10.077
RightLeg  8.54197 -1.78868 4.01703
RightFoot  -4.81554 -0.254111 3.87852
RightToes  0.00048216 0.542163 -0.142577
Spine  7.95273 1.1562 5.09403
Spine1  4.85137 2.74292 -5.35683
HEad  11.1562 7.82726 -2.78864
LeftShoulder1  7.39831 -10.9939 -44.4355
LeftArm  -13.7033 20.3405 -28.5771
LeftForeArm  18.2739 -18.0674 -3.80567
LeftHand  -0.25398 0.0180481 5.50724
RightShoulder  4.95417 8.55027 35.1359
RightArm  -6.47644 -15.0563 37.184
RightForeArm  2.42796 16.0247 5.81123
RightHand  -0.597406 -0.900746 -15.2987
LeftUpLeg  2.84937 3.86424 -1.20513
LeftLeg  3.68487 20.6089 -3.54262
LeftFoot  -4.95977 -0.12214 2.72814
LeftToes  1.06244e-005 4.65854e-005 -8.18505e-006
522
root  -55.7162 41.1011 -31.4631 -1.48529 -2.11678 1.97015
RightUpLeg  -0.38208 -13.1119 -11.005
RightLeg  8.81383 -0.706065 4.68889
RightFoot  -5.32989 -0.336852 5.74235
RightToes  0.00048216 0.542163 -0.142577
Spine  8.98863 0.665667 6.32026
Spine1  3.67124 2.48529 -6.08865
HEad  10.781 10.8141 -3.46984
LeftShoulder1  7.55656 -11.1119 -45.0455
LeftArm  -12.9569 20.2634 -28.6206
LeftForeArm  19.869 -17.433 -3.85319
LeftHand  -0.25398 0.0180481 5.50724
RightShoulder  4.81513 8.27615 34.9153
RightArm  -6.91568 -14.8267 37.1063
RightForeArm  -0.0777392 17.2712 5.58708
RightHand  -0.73618 -0.239262 -16.548
LeftUpLeg  0.430256 5.74305 -1.87404
LeftLeg  7.08386 18.7149 -2.18292
LeftFoot  -6.31304 -0.0450661 1.84603
LeftToes  1.06244e-005 4.65854e-005 -8.18505e-006
523
root  -55.5265 40.9805 -31.5549 -0.830185 -1.80766 2.07603
RightUpLeg  -1.16894 -13.5625 -11.7733
RightLeg  9.28567 -0.188569 5.17433
RightFoot  -6.32588 -0.413812 8.47941
RightToes  0.00048216 0.542163 -0.142577
Spine  9.77898 0.137856 8.09912
Spine1  2.98359 2.25512 -6.88598
HEad  10.1617 13.4191 -4.79924
LeftShoulder1  7.77578 -11.3061 -45.7727
LeftArm  -12.5814 19.8176 -28.5939
LeftForeArm  21.6148 -17.0969 -3.85725
LeftHand  -0.25398 0.0180481 5.50724
RightShoulder  4.72721 8.18119 34.502
RightArm  -6.33486 -14.9182 36.8122
RightForeArm  -2.54072 19.0862 5.34837
RightHand  -0.829458 0.267293 -17.0252
LeftUpLeg  -2.95803 13.0937 -2.61201
LeftLeg  12.3272 11.87 0.325441
LeftFoot  -7.97241 0.049016 -0.0503934
LeftToes  1.06244e-005 4.65854e-005 -8.18505e-006
524
root  -55.2885 40.9038 -31.6118 -0.257614 -1.6243 2.22829
RightUpLeg  -1.61874 -13.776 -12.5118
RightLeg  9.17138 -0.11286 5.36545
RightFoot  -7.13529 -0.469186 11.3763
RightToes  0.00048216 0.542163 -0.142577
Spine  10.1262 -0.00478963 9.51801
Spine1  2.9727 2.32854 -7.36311
HEad  9.60262 15.5492 -6.44642
LeftShoulder1  7.94598 -11.5119 -46.1474
LeftArm  -12.7063 19.3148 -29.2816
LeftForeArm  21.8459 -16.945 -3.86994
LeftHand  -0.25398 0.0180481 5.50724
RightShoulder  4.7162 8.23538 34.2243
RightArm  -4.64251 -14.7756 35.6036
RightForeArm  -4.54737 20.4613 5.2724
RightHand  -0.813582 0.28521 -16.6428
LeftUpLeg  -6.44545 19.7908 -3.56556
LeftLeg  17.1317 7.73858 2.89526
LeftFoot  -9.12075 0.0887519 -1.69061
LeftToes  1.06244e-005 4.65854e-005 -8.18505e-006
525
root  -55.0168 40.9003 -31.6361 0.214493 -2.00435 2.54755
RightUpLeg  -1.88969 -13.8749 -13.2833
RightLeg  8.41892 0.29279 5.40943
RightFoot  -6.97353 -0.565213 13.4824
RightToes  0.00048216 0.542163 -0.142577
Spine  10.3646 0.243566 10.1437
Spine1  3.14555 2.65642 -7.43262
HEad  9.11465 17.6158 -7.67571
LeftShoulder1  7.96482 -11.5615 -46.1028
LeftArm  -12.884 19.1516 -30.3878
LeftForeArm  21.124 -17.2081 -3.87717
LeftHand  -0.25398 0.0180481 5.50724
RightShoulder  4.72374 8.26754 34.1792
RightArm  -2.46289 -13.9412 33.8073
RightForeArm  -5.16719 20.6869 5.32507
RightHand  -0.754693 0.0669508 -16.0465
LeftUpLeg  -9.15966 21.0501 -3.45182
LeftLeg  20.5968 10.2241 4.57559
LeftFoot  -9.58484 0.0894885 -2.06549
LeftToes  1.06244e-005 4.65854e-005 -8.18505e-006
526
root  -54.7324 40.9332 -31.6303 0.566101 -2.89139 2.89003
RightUpLeg  -2.1919 -13.9247 -13.9367
RightLeg  7.562 1.07227 5.4067
RightFoot  -5.99549 -0.7003 14.0767
RightToes  0.00048216 0.542163 -0.142577
Spine  10.8101 0.596724 10.1722
Spine1  3.06431 3.00517 -7.25253
HEad  8.56899 19.9284 -8.17653
LeftShoulder1  7.85252 -11.4308 -45.8415
LeftArm  -12.7981 19.5599 -31.0254
LeftForeArm  21.2728 -18.2124 -3.79375
LeftHand  -0.25398 0.0180481 5.50724
RightShoulder  4.71662 8.24305 34.2019
RightArm  -1.17902 -12.6611 32.4347
RightForeArm  -3.99768 19.995 5.41281
RightHand  -0.724612 -0.0593225 -15.7625
LeftUpLeg  -10.8934 22.1261 -2.42636
LeftLeg  22.1285 11.5553 5.43916
LeftFoot  -9.55535 0.0837104 -1.69916
LeftToes  1.06244e-005 4.65854e-005 -8.18505e-006
